<?xml version="1.0" standalone="no"?>
<!DOCTYPE svg PUBLIC "-//W3C//DTD SVG 20010904//EN"
 "http://www.w3.org/TR/2001/REC-SVG-20010904/DTD/svg10.dtd">
<svg version="1.0" xmlns="http://www.w3.org/2000/svg"
 width="200.000000pt" height="200.000000pt" viewBox="0 0 200.000000 200.000000"
 preserveAspectRatio="xMidYMid meet">
<metadata>
Created by potrace 1.14, written by Peter Selinger 2001-2017
</metadata>
<g transform="translate(0.000000,200.000000) scale(0.100000,-0.100000)"
fill="#000000" stroke="none">
<path d="M64 1975 c-9 -23 3 -45 25 -45 21 0 35 -37 25 -64 -3 -9 -1 -16 5
-16 6 0 14 14 18 30 3 17 11 29 17 27 12 -5 12 -10 1 -44 -9 -33 18 -30 55 7
17 17 35 30 40 30 6 0 10 5 10 11 0 6 -9 9 -20 6 -18 -5 -17 -2 5 27 29 38 31
46 10 46 -8 0 -15 -4 -15 -8 0 -5 -7 -17 -16 -28 -15 -18 -15 -18 -9 9 6 31
-9 37 -24 8 -14 -26 -108 -24 -103 2 4 21 -17 22 -24 2z"/>
<path d="M294 1965 c-21 -32 -11 -44 16 -20 29 26 33 14 14 -34 -27 -67 -119
-154 -208 -197 -68 -32 -81 -42 -97 -78 -10 -23 -18 -63 -18 -91 l0 -50 25 78
c26 82 41 95 114 111 14 3 67 45 118 94 76 73 96 98 111 143 11 29 17 57 15
61 -3 5 -21 8 -39 8 -26 0 -39 -6 -51 -25z"/>
<path d="M642 1973 c-20 -14 -27 -14 -44 -4 -29 18 -37 2 -9 -20 29 -24 32
-24 65 2 43 34 32 53 -12 22z"/>
<path d="M820 1976 c0 -36 53 -45 66 -11 10 24 -6 32 -22 11 -12 -17 -14 -17
-20 -3 -7 20 -24 22 -24 3z"/>
<path d="M1032 1950 c-40 -22 -115 -72 -168 -111 -72 -54 -100 -81 -117 -115
-17 -37 -25 -44 -42 -39 -111 31 -335 57 -335 39 0 -5 22 -22 48 -37 75 -44
122 -79 122 -91 0 -6 -37 -31 -82 -56 -91 -50 -187 -141 -248 -234 -22 -33
-38 -61 -36 -63 2 -2 31 4 65 13 33 10 64 15 67 12 3 -4 -4 -25 -15 -49 -12
-24 -26 -70 -31 -104 -11 -66 -13 -237 -4 -272 9 -31 29 -29 43 5 6 15 22 40
35 57 l23 29 7 -50 c14 -100 53 -175 69 -131 2 6 8 -1 12 -18 14 -62 29 -87
79 -130 56 -50 55 -61 -3 -16 -51 40 -69 48 -126 56 -52 8 -105 30 -105 43 0
5 -9 18 -20 29 -15 17 -27 20 -58 16 -30 -4 -54 2 -114 31 -42 20 -81 36 -86
36 -7 0 -10 -54 -10 -147 1 -155 4 -167 16 -62 4 35 11 64 16 64 14 0 27 -57
17 -69 -21 -26 -51 -248 -51 -380 l0 -134 79 5 c98 7 116 2 172 -42 l44 -35
143 0 c78 0 142 3 142 8 0 4 -24 35 -53 69 -52 62 -60 80 -92 223 -6 26 19
-31 50 -114 21 -58 80 -127 101 -119 10 4 14 -4 14 -31 l0 -36 250 0 251 0
-12 23 c-7 12 -23 36 -36 53 -29 38 -29 44 0 44 18 0 27 -11 46 -60 l24 -60
273 0 c251 0 273 1 277 18 4 16 5 16 6 0 1 -14 10 -18 40 -18 33 0 40 4 45 26
10 38 68 165 73 160 3 -3 -5 -39 -17 -80 -13 -42 -21 -79 -18 -82 3 -3 35 1
72 7 l66 12 1 36 c1 35 2 35 8 7 10 -48 30 -44 25 6 l-4 43 14 -40 c13 -36 14
-11 15 258 1 163 -1 297 -4 297 -3 0 -22 -8 -43 -19 -71 -36 -186 -64 -298
-71 -99 -7 -118 -12 -182 -44 -39 -19 -73 -40 -76 -45 -4 -5 -19 -12 -35 -16
-15 -3 -38 -17 -50 -30 -14 -17 -31 -25 -54 -25 -52 0 -72 34 -46 82 10 19 12
18 46 -21 19 -23 38 -39 43 -36 4 2 10 32 14 65 4 34 10 60 14 58 58 -26 105
-39 112 -32 4 5 4 33 -1 63 -4 30 -7 57 -4 59 2 2 25 -13 50 -34 l47 -38 -4
62 c-3 58 6 80 18 47 5 -13 34 -22 34 -11 0 3 -11 26 -24 52 -22 44 -23 49 -9
83 8 20 16 37 18 39 1 1 14 -7 29 -19 15 -12 29 -19 32 -16 3 3 -7 28 -21 57
-14 29 -25 53 -23 54 2 2 31 13 65 25 65 24 67 28 30 69 -11 12 -15 22 -9 22
7 0 12 -3 12 -8 0 -11 49 -62 60 -62 21 0 7 25 -48 89 -69 78 -92 111 -92 129
0 10 8 7 29 -7 28 -20 51 -27 51 -15 0 17 -24 45 -56 64 l-36 23 49 17 c80 29
163 68 163 78 0 5 -19 14 -42 21 -68 20 -199 84 -248 122 -25 19 -56 41 -70
50 l-24 16 34 30 c19 17 55 46 79 64 25 19 43 38 40 42 -2 4 -98 8 -212 9
l-208 1 33 34 c18 19 59 51 91 70 53 34 78 64 40 48 -10 -4 -38 -14 -63 -22
-24 -8 -60 -26 -80 -39 -24 -17 -36 -20 -38 -12 -3 16 30 130 52 181 16 36 16
37 -4 37 -12 0 -20 -7 -20 -17 0 -10 -8 -27 -17 -38 -14 -17 -15 -18 -9 -2 4
14 2 18 -12 15 -19 -4 -20 -47 -1 -58 6 -4 3 -12 -7 -21 -16 -12 -17 -12 -11
4 6 15 3 17 -14 12 -13 -5 -19 -3 -15 3 7 12 -22 38 -31 28 -4 -4 -1 -11 6
-15 9 -6 10 -11 2 -15 -6 -4 -9 -12 -6 -17 4 -5 2 -9 -4 -9 -13 0 -22 16 -13
24 4 4 7 15 7 24 0 12 7 16 23 15 12 -2 22 1 22 5 0 11 56 42 64 35 3 -3 6 1
6 10 0 28 -39 20 -118 -23z m-26 -95 c-1 -43 -2 -44 -17 -24 -14 19 -16 19
-29 5 -8 -10 -20 -14 -33 -10 -12 4 -17 2 -13 -4 3 -6 1 -14 -5 -18 -8 -4 -9
-3 -5 4 9 16 -7 15 -22 0 -8 -8 -12 -8 -12 -1 0 14 69 55 81 48 5 -4 9 -2 9 4
0 6 8 8 18 4 9 -3 14 -3 10 1 -5 6 7 30 18 36 0 0 0 -20 0 -45z m104 -22 c0
-5 -5 -15 -10 -23 -8 -12 -10 -11 -10 8 0 12 5 22 10 22 6 0 10 -3 10 -7z
m-39 -55 c11 10 10 12 -1 12 -7 0 -11 2 -8 5 3 3 13 2 22 -1 13 -5 14 -9 6
-14 -7 -4 -12 -20 -12 -36 l0 -28 -15 28 c-8 15 -20 26 -26 23 -7 -3 -13 6
-14 21 l-1 26 18 -24 c15 -20 21 -23 31 -12z m-161 2 c0 -5 -2 -10 -4 -10 -3
0 -8 5 -11 10 -3 6 -1 10 4 10 6 0 11 -4 11 -10z m57 -15 c-7 -14 -16 -25 -20
-25 -8 0 -2 14 16 38 15 19 16 14 4 -13z m-116 -9 c12 11 19 13 19 5 0 -7 5
-9 11 -5 7 4 10 1 7 -7 -3 -8 -16 -14 -31 -14 -14 -1 -28 -3 -30 -5 -2 -3 -11
-16 -19 -28 -16 -23 -16 -24 -27 -4 -8 16 -7 21 5 26 8 3 12 2 9 -4 -3 -6 -1
-10 4 -10 6 0 11 2 11 4 0 2 3 12 7 22 5 14 3 16 -12 11 -15 -6 -16 -5 -5 8
12 15 14 15 23 0 8 -15 10 -15 28 1z m159 -5 c0 -5 -6 -12 -12 -14 -7 -3 -3
-6 8 -6 29 -1 39 -30 18 -50 -9 -9 -14 -10 -10 -3 8 14 -3 16 -24 2 -23 -14
-30 19 -11 52 16 27 31 37 31 19z m-73 -46 c0 -8 -4 -12 -9 -9 -4 3 -8 9 -8
15 0 5 4 9 8 9 5 0 9 -7 9 -15z m-81 -32 c-3 -3 -12 -1 -19 5 -8 7 -18 8 -22
4 -5 -4 -5 -1 -1 6 5 9 12 9 27 1 12 -6 18 -13 15 -16z m-291 11 c14 -6 14 -8
-1 -25 -10 -11 -12 -19 -6 -19 7 0 12 -5 12 -10 0 -8 -29 5 -59 27 -3 2 4 10
15 18 23 17 19 16 39 9z m525 -19 c-14 -16 -46 -20 -54 -6 -3 5 1 12 10 15 8
3 12 2 9 -4 -10 -16 11 -11 25 5 7 9 15 13 18 10 3 -2 -1 -11 -8 -20z m-420
-16 c0 -4 -7 -6 -15 -3 -8 4 -15 10 -15 15 0 4 7 6 15 3 8 -4 15 -10 15 -15z
m357 -6 c-9 -8 -48 8 -42 18 4 5 14 5 26 -2 12 -6 18 -13 16 -16z m205 19 c-9
-6 -10 -16 -3 -34 8 -20 6 -24 -7 -23 -10 1 -26 6 -38 13 -16 8 -24 8 -34 -1
-10 -9 -12 -9 -8 3 3 8 16 16 31 18 14 2 31 10 37 18 7 8 18 14 24 14 7 0 6
-3 -2 -8z m-316 -17 c18 -13 18 -14 -4 -8 -18 4 -21 2 -16 -13 5 -15 4 -16 -4
-4 -6 8 -9 17 -6 21 2 4 -2 10 -8 12 -9 4 -8 6 3 6 8 1 24 -6 35 -14z m344 0
c-6 -8 -8 -20 -4 -27 5 -10 4 -10 -5 -2 -13 12 -5 44 11 44 6 0 5 -6 -2 -15z
m80 10 c0 -3 -9 -16 -21 -28 l-21 -22 13 28 c11 23 29 37 29 22z m40 -5 c0 -5
-2 -10 -4 -10 -3 0 -8 5 -11 10 -3 6 -1 10 4 10 6 0 11 -4 11 -10z m44 -2 c-5
-7 -2 -9 8 -6 22 9 16 -31 -7 -48 -23 -17 -38 -18 -32 -1 2 6 11 12 20 12 8 0
19 4 23 8 4 4 2 7 -4 7 -6 0 -16 9 -22 20 -9 16 -8 20 5 20 10 0 13 -5 9 -12z
m-572 -38 c6 0 5 7 -3 17 -12 14 -12 16 1 11 22 -7 18 -33 -5 -31 -11 1 -23
-4 -28 -10 -5 -7 -6 -3 -2 11 5 17 2 22 -12 22 -15 0 -15 2 -3 9 10 7 18 4 28
-10 7 -10 18 -19 24 -19z m-88 8 c-5 -7 -2 -9 9 -5 11 4 14 2 10 -9 -7 -18
-11 -18 -29 0 -11 11 -11 16 -1 19 18 8 19 8 11 -5z m-34 -18 c0 -5 -5 -10
-11 -10 -5 0 -7 5 -4 10 3 6 8 10 11 10 2 0 4 -4 4 -10z m236 1 c-11 -17 19
-18 32 -2 9 10 11 11 6 2 -5 -10 -3 -13 9 -8 8 3 20 0 26 -7 13 -16 4 -49 -11
-40 -6 4 -5 10 3 15 8 5 10 9 4 9 -5 0 -16 -4 -24 -9 -13 -8 -13 -12 0 -28 13
-17 13 -17 -4 -4 -11 9 -15 21 -11 34 4 13 2 17 -5 12 -14 -8 -43 13 -35 26 3
5 7 9 10 9 3 0 3 -4 0 -9z m322 -3 c-3 -14 -18 -28 -30 -28 -4 0 0 9 9 20 20
23 24 25 21 8z m-355 -41 c-2 -46 -3 -48 -14 -41 -6 3 -7 9 -3 13 12 8 11 44
-1 54 -6 5 -4 7 5 5 8 -3 14 -16 13 -31z m-159 2 c5 -4 -8 -4 -29 1 -39 9 -65
4 -65 -12 0 -5 -5 -6 -11 -2 -19 12 33 33 66 27 17 -3 34 -9 39 -14z m-159 -5
c-9 -9 -19 -13 -23 -10 -3 4 0 11 8 16 24 15 33 11 15 -6z m605 -18 c0 -6 -4
-5 -9 3 -8 12 -12 12 -25 2 -18 -15 -22 -1 -4 17 13 13 38 -1 38 -22z m140 14
c-14 -11 -30 -18 -37 -15 -6 2 -14 0 -17 -6 -2 -5 -4 -4 -2 2 1 6 17 17 36 24
48 17 48 17 20 -5z m-855 -30 c-3 -5 -12 -10 -18 -10 -7 0 -6 4 3 10 19 12 23
12 15 0z m495 -10 c6 -11 8 -20 6 -20 -3 0 -10 9 -16 20 -6 11 -8 20 -6 20 3
0 10 -9 16 -20z m216 -4 c3 -8 13 -12 23 -9 9 2 23 -3 30 -11 8 -9 18 -16 23
-16 6 0 5 7 -2 15 -11 13 -10 14 4 9 21 -8 20 -17 -5 -40 -20 -18 -21 -18 -60
24 -22 23 -36 42 -29 42 6 0 13 -6 16 -14z m187 0 c1 -5 -11 -10 -26 -10 -26
-2 -27 0 -11 11 19 14 34 13 37 -1z m-818 -6 c-3 -5 -12 -10 -18 -10 -7 0 -6
4 3 10 19 12 23 12 15 0z m30 0 c3 -5 1 -10 -4 -10 -6 0 -11 5 -11 10 0 6 2
10 4 10 3 0 8 -4 11 -10z m235 -6 c0 -2 -7 -4 -15 -4 -8 0 -15 4 -15 10 0 5 7
7 15 4 8 -4 15 -8 15 -10z m195 6 c3 -5 1 -10 -4 -10 -6 0 -11 5 -11 10 0 6 2
10 4 10 3 0 8 -4 11 -10z m115 -5 c7 -8 9 -15 6 -15 -4 0 -14 7 -22 15 -9 8
-11 15 -6 15 5 0 15 -7 22 -15z m309 -38 c-2 -3 -15 10 -28 27 l-24 31 28 -27
c16 -15 27 -29 24 -31z m-1009 33 c-8 -5 -11 -10 -7 -10 5 0 2 -7 -7 -15 -8
-8 -21 -15 -28 -15 -8 0 -7 4 5 11 9 5 17 15 17 20 0 6 -5 7 -12 3 -7 -4 -8
-3 -4 4 4 7 17 12 29 12 18 0 19 -2 7 -10z m935 -18 c-3 -3 -11 0 -18 7 -9 10
-8 11 6 5 10 -3 15 -9 12 -12z m-15 -36 c0 -12 -5 -7 -19 24 -11 24 -11 24 3
6 9 -11 16 -24 16 -30z m-809 15 c-13 -8 -13 -12 0 -27 13 -16 12 -16 -8 -4
-16 11 -19 17 -11 27 6 7 16 13 22 13 6 0 5 -4 -3 -9z m159 -1 c0 -5 -5 -10
-11 -10 -5 0 -7 5 -4 10 3 6 8 10 11 10 2 0 4 -4 4 -10z m477 -13 c9 -19 8
-23 -7 -24 -10 -1 -26 8 -36 20 -10 12 -12 16 -4 10 8 -7 21 -13 30 -12 10 0
11 2 3 6 -15 5 -18 23 -5 23 5 0 13 -10 19 -23z m297 14 c3 -5 -1 -11 -9 -14
-9 -4 -12 -1 -8 9 6 16 10 17 17 5z m-1134 -16 c-7 -9 -15 -13 -17 -11 -7 7 7
26 19 26 6 0 6 -6 -2 -15z m539 -1 c-11 -13 -10 -17 4 -25 9 -6 17 -14 17 -19
0 -6 -11 0 -24 11 -19 17 -22 24 -13 35 17 19 32 17 16 -2z m85 1 c4 -12 2
-13 -12 -6 -9 4 -26 5 -37 1 -19 -7 -19 -7 0 -18 11 -6 15 -12 10 -12 -17 0
-34 21 -28 36 7 19 59 18 67 -1z m101 5 c3 -6 -1 -7 -9 -4 -18 7 -21 14 -7 14
6 0 13 -4 16 -10z m-435 -36 c0 -8 -6 -11 -15 -8 -8 4 -15 2 -15 -3 0 -5 -7
-10 -15 -10 -21 0 -19 4 13 21 15 8 21 15 15 16 -7 0 -13 5 -13 11 0 8 5 8 15
-1 8 -7 15 -19 15 -26z m874 20 c3 -8 2 -12 -4 -9 -6 3 -10 10 -10 16 0 14 7
11 14 -7z m-194 2 c0 -2 -12 -11 -26 -21 -15 -9 -23 -12 -20 -6 4 6 2 11 -3
11 -6 0 -11 -8 -12 -17 0 -11 -3 -13 -6 -5 -2 6 -9 10 -14 6 -5 -3 -9 -2 -9 1
0 3 15 12 33 20 31 14 57 19 57 11z m-800 -36 c-7 -5 -20 -6 -28 -2 -11 4 -13
1 -7 -8 5 -9 4 -11 -3 -6 -19 11 -14 21 16 32 28 10 45 -2 22 -16z m628 14
c15 -15 14 -16 -6 -10 -23 8 -32 -9 -9 -17 8 -3 6 -10 -8 -20 -18 -15 -21 -14
-37 6 -21 27 -22 33 -4 40 9 4 12 0 9 -13 -5 -19 14 -37 25 -25 4 4 2 10 -5
12 -10 3 -10 9 0 24 14 23 14 23 35 3z m-824 -3 c3 -4 -5 -13 -17 -18 -36 -17
-32 -60 6 -54 10 1 9 -11 -3 -29 -7 -11 -10 -11 -10 -2 0 8 -5 10 -12 6 -7 -4
-10 -4 -6 1 4 4 0 13 -9 20 -15 11 -15 15 6 49 23 36 35 44 45 27z m543 -4 c4
-7 18 -20 31 -29 15 -10 19 -18 12 -23 -11 -7 -49 31 -50 50 0 6 -5 3 -10 -5
-8 -13 -10 -12 -10 3 0 20 16 23 27 4z m93 -2 c-7 -8 -17 -15 -23 -15 -6 0 -2
7 9 15 25 19 30 19 14 0z m443 1 c4 -10 1 -13 -8 -9 -8 3 -12 9 -9 14 7 12 11
11 17 -5z m42 4 c-8 -13 1 -13 27 1 17 9 24 8 34 -6 16 -21 8 -45 -15 -44 -10
0 -11 2 -3 6 15 6 16 43 1 43 -5 0 -7 -4 -4 -10 3 -5 0 -7 -9 -4 -8 3 -16 -1
-18 -10 -2 -11 -7 -13 -17 -7 -13 8 -9 41 4 41 4 0 3 -4 0 -10z m136 0 c10 -6
19 -16 19 -23 0 -7 -4 -6 -10 3 -11 17 -12 12 -14 -44 -1 -23 -6 -40 -14 -42
-7 -1 -8 0 -2 3 7 3 7 10 -1 20 -10 11 -10 16 0 23 11 6 10 12 -3 32 -22 34
-10 46 25 28z m-381 -4 c0 -2 -7 -7 -16 -10 -8 -3 -12 -2 -9 4 6 10 25 14 25
6z m120 0 c0 -2 -7 -7 -16 -10 -8 -3 -12 -2 -9 4 6 10 25 14 25 6z m-904 -34
c-8 -16 -22 -29 -31 -29 -12 0 -9 8 12 29 15 15 28 28 30 28 2 0 -3 -13 -11
-28z m561 1 c1 -20 -1 -23 -9 -12 -7 10 -9 8 -5 -8 5 -23 -7 -31 -18 -13 -4 7
21 60 29 60 0 0 2 -12 3 -27z m262 -3 c-9 -6 -8 -12 5 -25 10 -10 14 -25 11
-36 -5 -14 -2 -17 9 -13 9 3 13 11 9 17 -3 6 -1 7 5 3 7 -4 12 -2 12 3 0 6 -8
11 -17 11 -17 1 -17 1 0 11 9 5 17 15 17 20 0 6 -4 7 -10 4 -5 -3 -10 1 -10 9
0 14 3 14 20 4 22 -14 26 -28 9 -28 -6 0 -8 -8 -5 -18 8 -25 -23 -53 -52 -45
-12 3 -19 9 -16 14 3 5 1 9 -5 9 -6 0 -16 10 -22 23 -9 18 -9 20 2 10 18 -18
32 -16 25 2 -7 20 4 46 16 39 6 -4 5 -9 -3 -14z m119 -5 c-3 -3 -9 2 -12 12
-6 14 -5 15 5 6 7 -7 10 -15 7 -18z m-1022 -12 c-7 -7 -26 7 -26 19 0 6 6 6
15 -2 9 -7 13 -15 11 -17z m545 -5 c8 -15 8 -18 0 -14 -6 4 -16 16 -22 28 -8
15 -8 18 0 14 6 -4 16 -16 22 -28z m174 2 c16 -19 16 -22 3 -11 -13 10 -18 10
-18 2 0 -7 -4 -10 -9 -7 -5 3 -7 15 -4 26 3 12 6 19 7 18 1 -2 10 -14 21 -28z
m-544 -4 c-9 -10 -9 -16 -1 -21 8 -5 6 -11 -6 -19 -11 -9 -13 -15 -6 -20 6 -4
8 -14 5 -22 -3 -9 3 -21 16 -30 11 -8 21 -20 21 -26 0 -6 -9 -3 -19 6 -11 10
-23 16 -28 13 -4 -3 -8 15 -9 39 0 24 4 44 9 44 5 0 4 7 -3 15 -11 13 -10 18
6 29 23 17 32 12 15 -8z m1109 14 c0 -5 -4 -10 -10 -10 -5 0 -10 5 -10 10 0 6
5 10 10 10 6 0 10 -4 10 -10z m45 0 c3 -5 1 -10 -4 -10 -6 0 -11 5 -11 10 0 6
2 10 4 10 3 0 8 -4 11 -10z m-1071 -30 c-6 -6 -10 -2 -11 12 -2 16 1 18 10 9
7 -7 8 -14 1 -21z m81 20 c-3 -5 -11 -10 -16 -10 -6 0 -7 5 -4 10 3 6 11 10
16 10 6 0 7 -4 4 -10z m686 -5 c8 5 11 5 7 0 -4 -4 -3 -14 3 -22 8 -8 8 -13 1
-13 -6 0 -12 6 -15 13 -3 8 -10 6 -21 -8 -14 -18 -15 -18 -16 -2 0 9 4 17 10
17 5 0 7 8 4 18 -5 13 -4 14 4 3 6 -8 15 -10 23 -6z m-891 -34 c0 -13 -10 -14
-28 -3 -7 5 -10 16 -6 25 5 14 8 14 20 2 8 -7 14 -18 14 -24z m687 0 c13 -30
12 -31 -6 -22 -10 6 -21 22 -23 36 -7 36 13 26 29 -14z m573 35 c0 -9 -40 -13
-46 -5 -3 5 6 9 20 9 14 0 26 -2 26 -4z m-1463 -21 c8 -22 -6 -33 -18 -15 -8
13 -10 13 -19 0 -5 -8 -10 -10 -10 -4 0 12 21 34 32 34 5 0 11 -7 15 -15z
m533 7 c0 -5 -7 -9 -15 -9 -8 0 -15 4 -15 9 0 4 7 8 15 8 8 0 15 -4 15 -8z
m-413 -17 c0 -8 -6 -16 -14 -19 -11 -4 -11 -1 -3 14 13 24 17 25 17 5z m1268
5 c3 -5 1 -10 -4 -10 -6 0 -11 5 -11 10 0 6 2 10 4 10 3 0 8 -4 11 -10z
m-1004 -27 c-12 -20 -14 -14 -5 12 4 9 9 14 11 11 3 -2 0 -13 -6 -23z m252 10
c-5 -12 -3 -14 7 -8 9 6 11 4 5 -4 -5 -9 -11 -9 -17 -3 -6 6 -7 15 -4 21 11
17 16 13 9 -6z m161 5 c-5 -8 -2 -9 9 -5 9 3 19 1 23 -5 4 -7 3 -8 -5 -4 -6 4
-14 1 -17 -8 -3 -8 -13 -17 -22 -21 -14 -5 -15 -4 -4 6 20 21 14 33 -8 14 -14
-12 -20 -14 -20 -5 0 13 28 39 43 40 5 0 5 -5 1 -12z m-500 -17 c-10 -10 -21
-16 -24 -14 -3 3 4 11 14 19 28 20 33 17 10 -5z m176 15 c0 -2 -7 -7 -16 -10
-8 -3 -12 -2 -9 4 6 10 25 14 25 6z m70 -40 c0 -6 -7 -1 -15 10 -8 10 -15 23
-15 28 0 6 7 1 15 -10 8 -10 15 -23 15 -28z m663 29 c-3 -9 -8 -14 -10 -11 -3
3 -2 9 2 15 9 16 15 13 8 -4z m-993 -16 c0 -13 -17 -11 -26 2 -4 8 -9 7 -15
-2 -5 -8 -9 -9 -9 -3 0 6 3 13 6 16 8 8 44 -3 44 -13z m890 11 c8 -5 11 -10 5
-10 -5 0 -17 5 -25 10 -8 5 -10 10 -5 10 6 0 17 -5 25 -10z m-990 -20 c-6 -11
-8 -25 -5 -30 3 -5 1 -11 -4 -14 -5 -4 -12 3 -16 14 -3 11 -11 20 -16 20 -5 0
-9 5 -9 11 0 8 5 7 16 -2 13 -11 17 -10 25 4 14 24 22 21 9 -3z m571 3 c10
-12 11 -15 1 -9 -7 4 -19 2 -27 -4 -18 -15 -20 -4 -2 15 15 18 12 18 28 -2z
m422 -16 c4 3 7 1 7 -5 0 -6 -4 -14 -10 -17 -5 -3 -10 -11 -10 -16 0 -6 4 -8
9 -4 6 3 9 -4 8 -15 -2 -24 -19 -32 -38 -18 -11 8 -10 9 4 4 20 -6 23 14 5 32
-9 9 -9 12 0 12 7 0 12 5 12 11 0 6 -9 8 -22 4 -18 -6 -20 -4 -14 11 5 14 4
16 -4 8 -9 -9 -9 -17 0 -33 8 -16 8 -21 -1 -19 -6 2 -14 -3 -17 -11 -3 -8 0
-11 7 -7 6 4 11 1 11 -8 0 -10 -6 -13 -16 -9 -13 5 -15 2 -10 -15 4 -12 2 -23
-5 -28 -8 -4 -9 -3 -5 4 4 7 -5 35 -19 63 -14 29 -24 57 -21 63 2 6 5 4 5 -5
1 -22 48 -53 54 -36 2 6 -3 18 -12 25 -9 8 -11 11 -4 7 7 -3 18 3 25 14 12 20
12 20 33 1 12 -11 25 -17 28 -13z m150 18 c-3 -9 -8 -14 -10 -11 -3 3 -2 9 2
15 9 16 15 13 8 -4z m-799 -21 c3 -8 2 -12 -4 -9 -6 3 -10 10 -10 16 0 14 7
11 14 -7z m36 -10 c0 -8 -4 -12 -10 -9 -5 3 -10 13 -10 21 0 8 5 12 10 9 6 -3
10 -13 10 -21z m-51 -6 c11 -15 10 -16 -13 -5 -16 8 -20 14 -13 19 6 4 12 6
12 5 0 -1 6 -10 14 -19z m422 6 c9 4 26 -12 47 -42 17 -27 32 -52 32 -56 0
-13 41 -61 48 -56 10 7 32 -86 35 -145 2 -39 -1 -50 -14 -53 -13 -2 -15 3 -12
23 3 15 1 25 -6 25 -6 0 -11 -8 -12 -17 0 -13 -3 -11 -12 7 l-11 25 -4 -28
c-5 -37 22 -58 63 -52 l30 5 -27 -11 c-27 -10 -38 -29 -19 -29 29 0 63 24 78
55 15 32 18 34 25 16 6 -18 9 -18 44 15 63 57 95 41 96 -49 1 -58 -33 -126
-71 -147 -27 -14 -68 -13 -74 3 -3 7 -7 5 -12 -8 -29 -79 -50 -108 -108 -149
-82 -57 -97 -64 -69 -34 27 29 28 76 7 198 -21 120 -31 150 -61 181 l-27 28
-38 -20 c-21 -10 -54 -19 -73 -19 -18 0 -65 -9 -102 -21 -47 -14 -82 -19 -111
-15 -51 7 -55 2 -64 -84 -9 -81 3 -147 41 -229 17 -35 29 -65 28 -67 -2 -1
-36 11 -75 28 -89 37 -136 81 -152 141 -17 59 -8 83 12 35 11 -26 22 -38 36
-38 12 0 22 5 22 10 4 34 3 44 -8 47 -6 2 -13 -4 -16 -14 -4 -17 -4 -17 -12 0
-4 9 -4 25 1 35 4 9 8 36 9 59 3 45 2 45 -47 11 -36 -25 -43 -3 -12 38 22 30
22 33 8 79 -8 27 -14 70 -14 96 0 55 22 163 28 137 2 -10 7 -18 12 -18 5 0 7
-7 4 -15 -4 -8 -1 -15 5 -15 6 0 11 -12 11 -26 0 -23 2 -24 15 -10 8 8 15 19
15 24 0 5 7 9 15 11 38 4 61 3 77 -4 13 -5 19 -1 24 19 7 28 34 36 34 11 0
-12 4 -13 19 -6 21 12 43 -7 60 -52 15 -40 31 -33 28 12 -1 21 -5 37 -9 34 -5
-2 -8 12 -8 32 0 23 4 34 10 30 6 -4 8 -16 4 -28 -6 -20 -5 -21 11 -6 15 15
21 12 76 -43 32 -33 59 -63 59 -67 0 -4 11 -14 25 -21 14 -7 25 -17 25 -22 0
-15 50 -8 89 12 50 25 66 74 35 104 -19 19 -114 22 -132 4 -17 -17 -24 -5 -29
49 -5 45 -4 47 11 28 8 -11 16 -15 16 -8 0 13 30 11 31 -3 0 -5 -9 -10 -21
-12 -11 -2 -18 -7 -15 -12 5 -8 65 7 65 16 0 16 -35 54 -46 50 -8 -3 -14 -1
-14 4 0 9 14 14 33 11 4 0 7 5 7 12 0 9 2 9 8 -1 5 -7 15 -10 23 -8z m379 1
c7 -9 8 -15 2 -15 -5 0 -12 7 -16 15 -3 8 -4 15 -2 15 2 0 9 -7 16 -15z m-691
-44 c0 -14 -1 -14 -6 -1 -3 8 -10 24 -15 35 -9 20 -9 20 6 1 9 -11 16 -27 15
-35z m55 14 c17 -25 16 -25 -4 -13 -11 7 -20 18 -20 25 0 19 6 16 24 -12z
m-422 -42 c4 9 13 17 19 17 7 0 5 -8 -6 -20 -27 -30 -35 -25 -34 23 l2 42 6
-40 c4 -29 8 -35 13 -22z m313 38 c-3 -6 3 -14 12 -20 10 -6 13 -11 7 -11 -15
0 -36 25 -27 33 10 10 15 8 8 -2z m779 -16 c3 -8 -3 -16 -13 -20 -10 -3 -23
-17 -30 -32 -10 -22 -14 -24 -22 -12 -7 12 -9 11 -9 -3 0 -23 16 -32 24 -13 3
8 10 15 16 15 7 0 8 -6 0 -19 -7 -14 -6 -21 3 -24 6 -2 -3 -4 -21 -4 -18 0
-28 4 -21 7 8 6 8 9 0 15 -7 4 -10 27 -9 56 2 38 5 46 14 34 6 -8 14 -12 17
-8 4 3 7 1 7 -6 0 -7 5 -9 10 -6 8 5 8 11 1 19 -6 7 -8 15 -5 19 9 8 32 -3 38
-18z m-957 -16 c2 -16 1 -18 -11 -7 -8 7 -10 15 -5 16 5 2 6 9 2 15 -3 7 -2 9
2 4 5 -4 10 -17 12 -28z m-259 3 c-8 -9 -14 -9 -23 -2 -10 8 -15 8 -21 -1 -4
-8 -3 -9 4 -5 7 4 12 3 12 -3 0 -12 -19 -25 -27 -18 -2 3 -2 14 1 25 5 13 15
19 35 18 22 -1 27 -4 19 -14z m658 -15 c-3 -12 -2 -26 2 -32 4 -6 -1 -2 -10 8
-10 11 -18 24 -18 31 0 6 5 4 11 -4 9 -12 10 -11 6 8 -3 13 -1 20 5 16 5 -3 7
-16 4 -27z m444 8 c0 -8 -4 -15 -10 -15 -5 0 -10 7 -10 15 0 8 5 15 10 15 6 0
10 -7 10 -15z m-1089 -18 c-10 -9 -11 -8 -5 6 3 10 9 15 12 12 3 -3 0 -11 -7
-18z m339 -25 c0 -5 -10 -9 -22 -8 -13 0 -23 7 -22 14 4 48 3 47 24 24 11 -12
20 -25 20 -30z m43 42 c18 -6 11 -40 -9 -48 -17 -6 -29 17 -20 39 6 17 8 17
29 9z m532 -41 c4 -15 2 -23 -6 -23 -7 0 -10 3 -6 6 3 3 1 18 -4 33 -6 15 -6
22 -1 16 5 -5 13 -20 17 -32z m-775 17 c0 -5 -5 -10 -11 -10 -5 0 -7 5 -4 10
3 6 8 10 11 10 2 0 4 -4 4 -10z m870 0 c0 -5 -5 -10 -11 -10 -5 0 -7 5 -4 10
3 6 8 10 11 10 2 0 4 -4 4 -10z m199 -7 c-12 -14 -12 -16 2 -11 9 4 20 -1 27
-12 10 -17 9 -17 -19 -3 -29 14 -35 24 -22 36 14 15 25 6 12 -10z m-1223 -8
c14 -13 14 -15 -1 -15 -9 0 -15 -6 -13 -12 3 -7 -1 -19 -9 -26 -11 -11 -15
-11 -27 1 -22 21 -17 59 6 51 10 -3 18 -1 18 5 0 15 9 14 26 -4z m177 -22 c-5
-2 -8 -18 -7 -36 2 -34 -10 -49 -33 -40 -8 3 -11 13 -8 24 4 11 3 19 -2 19 -5
0 -9 12 -10 28 l-2 27 13 -30 13 -30 18 35 c12 23 20 30 23 21 3 -8 1 -16 -5
-18z m861 -6 c4 4 4 -1 0 -11 -5 -12 -9 -14 -14 -6 -5 9 -9 9 -14 1 -4 -6 -11
-11 -17 -11 -5 0 -4 9 3 19 8 13 16 17 24 11 6 -6 14 -7 18 -3z m61 4 c3 -5 1
-12 -5 -16 -5 -3 -10 1 -10 9 0 18 6 21 15 7z m-245 -26 c0 -16 -42 -41 -79
-46 -34 -6 -53 27 -27 47 27 19 106 19 106 -1z m408 4 c13 7 22 3 35 -15 19
-26 8 -34 -13 -9 -7 8 -18 15 -24 15 -6 0 -2 -7 8 -15 11 -8 16 -18 12 -22 -5
-5 -15 2 -23 15 -16 22 -43 30 -43 12 0 -5 -6 -10 -12 -10 -7 1 -2 10 12 21
14 12 26 16 28 10 2 -7 10 -8 20 -2z m-1271 -29 c1 -11 -2 -18 -8 -15 -12 8
-12 -8 1 -21 6 -6 12 -21 15 -33 3 -17 1 -21 -11 -17 -10 4 -14 1 -11 -6 6
-18 -12 -50 -24 -42 -6 3 -8 13 -5 21 4 9 2 11 -5 7 -7 -4 -10 -1 -7 7 3 8 1
23 -5 34 -9 18 -9 19 8 5 17 -14 18 -14 5 10 -12 22 -12 24 2 12 10 -8 19 -9
22 -3 3 5 2 11 -4 13 -6 2 -4 12 5 26 20 27 20 27 22 2z m-37 0 c0 -5 -4 -10
-10 -10 -5 0 -10 5 -10 10 0 6 5 10 10 10 6 0 10 -4 10 -10z m1140 -15 c0 -14
-4 -25 -10 -25 -5 0 -10 11 -10 25 0 14 5 25 10 25 6 0 10 -11 10 -25z m-1060
-15 c0 -5 -5 -10 -11 -10 -5 0 -7 5 -4 10 3 6 8 10 11 10 2 0 4 -4 4 -10z
m980 0 c0 -5 -5 -10 -11 -10 -5 0 -7 5 -4 10 3 6 8 10 11 10 2 0 4 -4 4 -10z
m10 -35 c-7 -8 -17 -15 -23 -15 -6 0 -2 8 9 19 22 21 33 19 14 -4z m190 -1 c0
-8 7 -14 15 -14 8 0 15 -4 15 -10 0 -15 -29 0 -40 21 -13 23 -13 32 0 24 6 -3
10 -13 10 -21z m46 17 c-3 -5 1 -14 10 -21 11 -10 12 -15 3 -21 -17 -10 -40
32 -25 43 15 10 18 10 12 -1z m74 -21 c0 -5 -2 -10 -4 -10 -2 0 -12 -3 -22 -7
-16 -6 -17 -5 -4 10 17 19 30 22 30 7z m-1270 -10 c0 -5 -2 -10 -4 -10 -3 0
-8 5 -11 10 -3 6 -1 10 4 10 6 0 11 -4 11 -10z m37 -12 c-3 -8 -6 -5 -6 6 -1
11 2 17 5 13 3 -3 4 -12 1 -19z m73 -6 c0 -15 -2 -15 -10 -2 -13 20 -13 33 0
25 6 -3 10 -14 10 -23z m850 -1 c0 -6 -4 -13 -10 -16 -5 -3 -10 1 -10 9 0 9 5
16 10 16 6 0 10 -4 10 -9z m-930 -52 c0 -5 -8 -9 -17 -9 -15 0 -16 -2 -3 -10
8 -5 11 -10 5 -10 -5 0 -16 4 -24 9 -18 12 -5 32 16 24 12 -5 14 -3 8 7 -5 9
-4 11 3 6 7 -4 12 -11 12 -17z m-153 -11 c-3 -8 -6 -5 -6 6 -1 11 2 17 5 13 3
-3 4 -12 1 -19z m848 2 c19 -21 14 -50 -9 -50 -19 0 -24 -17 -19 -60 3 -30 2
-32 -6 -12 -12 25 -15 26 -42 12 -13 -7 -19 -21 -19 -45 0 -41 10 -48 47 -34
24 9 30 8 42 -10 7 -12 21 -21 30 -21 11 0 21 -15 30 -44 18 -63 6 -82 -61
-90 -92 -12 -212 -38 -240 -52 -37 -19 -40 -18 -66 22 -18 27 -21 39 -12 49 7
8 10 18 7 22 -6 10 7 46 15 41 9 -5 48 34 48 49 0 7 5 13 10 13 6 0 10 -11 10
-25 0 -14 5 -25 10 -25 6 0 10 14 10 32 0 34 15 29 22 -7 2 -14 10 -19 23 -17
11 2 22 8 23 13 2 5 8 7 13 3 11 -6 11 16 3 80 -6 43 -9 46 -36 46 -22 0 -31
-7 -40 -27 l-12 -28 -4 38 c-2 20 -7 37 -13 37 -5 0 -9 -17 -9 -37 l-1 -38
-13 30 c-12 25 -15 27 -21 13 -8 -20 -25 -24 -25 -7 0 7 -11 22 -25 35 -34 32
-32 48 5 41 19 -4 46 1 76 14 26 11 75 22 108 26 34 3 72 12 86 19 33 17 34
17 55 -6z m-717 -81 c-3 -8 -7 -3 -11 10 -4 17 -3 21 5 13 5 -5 8 -16 6 -23z
m92 -18 c0 -5 -6 -11 -12 -14 -10 -3 -10 -9 0 -26 6 -11 12 -32 12 -45 0 -13
12 -39 26 -56 37 -44 20 -51 -21 -9 -53 52 -66 159 -20 159 8 0 15 -4 15 -9z
m100 6 c0 -2 -15 -14 -32 -27 l-33 -23 24 26 c21 23 41 35 41 24z m-355 -97
c3 -6 -1 -7 -9 -4 -18 7 -21 14 -7 14 6 0 13 -4 16 -10z m1228 -7 c-4 -9 -2
-14 3 -11 5 4 10 -6 11 -20 l1 -27 -14 28 c-8 15 -12 32 -9 37 10 16 15 11 8
-7z m-1040 -84 c26 -14 177 -138 177 -146 0 -3 -6 -1 -12 4 -153 116 -156 117
-119 31 10 -24 21 -64 25 -88 l7 -45 -23 39 c-38 63 -109 169 -131 194 l-20
22 37 0 c20 0 47 -5 59 -11z m-373 -98 c0 -22 -4 -42 -8 -45 -4 -2 -8 15 -8
40 -1 24 3 44 7 44 5 0 9 -18 9 -39z m1545 4 c-27 -7 -56 -15 -64 -17 -7 -1
-15 2 -18 9 -5 14 18 21 82 21 l50 1 -50 -14z m-465 -25 c-46 -36 -123 -70
-160 -70 -43 0 -100 18 -100 31 0 22 139 57 230 58 l55 1 -25 -20z m32 -65 c6
-46 26 -84 37 -66 4 5 30 13 58 17 50 6 52 6 59 -20 9 -36 -18 -86 -75 -138
l-43 -40 -147 4 c-165 5 -202 16 -242 69 -31 41 -82 139 -76 146 3 2 27 -9 53
-26 27 -16 75 -39 106 -51 32 -12 60 -26 63 -31 8 -11 35 -12 35 -1 0 5 -11
14 -25 20 -14 6 -25 15 -25 19 0 5 21 21 48 36 26 16 72 46 102 67 30 22 58
40 61 40 4 0 9 -20 11 -45z m-361 14 c25 -13 16 -29 -17 -29 -26 0 -27 1 -18
24 7 19 9 19 35 5z m579 -208 c0 -56 -4 -103 -10 -106 -6 -4 -10 20 -10 64 0
38 -4 72 -9 76 -12 7 7 65 20 65 5 0 9 -45 9 -99z m-1335 -73 c-1 -46 -4 -53
-24 -56 -22 -3 -22 -3 -5 35 9 21 18 46 21 56 8 28 10 20 8 -35z m81 -14 c-4
-20 -10 -34 -12 -31 -3 3 -2 21 2 41 3 21 9 35 11 32 3 -3 2 -21 -1 -42z
m1571 -29 c-14 -33 -27 -52 -29 -44 -5 13 42 112 50 105 2 -2 -8 -30 -21 -61z
m220 13 c-3 -8 -6 -5 -6 6 -1 11 2 17 5 13 3 -3 4 -12 1 -19z m-1840 -20 c-3
-7 -5 -2 -5 12 0 14 2 19 5 13 2 -7 2 -19 0 -25z m841 -3 c7 -14 12 -29 12
-33 -1 -10 -40 38 -40 49 0 18 17 8 28 -16z"/>
<path d="M982 1711 c-11 -7 -10 -9 3 -14 10 -4 14 -3 9 4 -4 8 1 9 17 4 19 -5
21 -4 9 4 -18 13 -21 13 -38 2z"/>
<path d="M540 1669 c0 -5 5 -7 10 -4 6 3 10 8 10 11 0 2 -4 4 -10 4 -5 0 -10
-5 -10 -11z"/>
<path d="M1205 1629 c-4 -6 -5 -12 -2 -15 2 -3 7 2 10 11 7 17 1 20 -8 4z"/>
<path d="M1250 1475 c7 -8 17 -15 22 -15 6 0 5 7 -2 15 -7 8 -17 15 -22 15 -6
0 -5 -7 2 -15z"/>
<path d="M696 1071 c-4 -6 -4 -11 1 -11 4 0 -11 -11 -34 -25 l-42 -25 13 -37
c10 -30 18 -38 43 -40 35 -4 121 30 129 52 13 33 -5 64 -41 71 -19 3 -38 5
-41 4 -4 -1 -10 4 -14 10 -5 9 -9 9 -14 1z m79 -51 c7 -11 -44 -36 -85 -42
-17 -2 -25 2 -25 12 0 29 95 55 110 30z"/>
<path d="M1452 907 c-38 -39 -39 -43 -11 -50 12 -3 18 -10 14 -16 -3 -6 1 -11
10 -11 12 0 15 5 10 18 -11 27 -11 45 2 49 6 2 14 -5 18 -17 3 -11 10 -18 15
-15 9 6 -7 62 -19 70 -4 2 -22 -10 -39 -28z"/>
<path d="M1407 843 c-3 -5 -7 -28 -8 -52 -5 -56 16 -73 54 -45 15 10 27 25 27
33 0 11 -3 11 -15 1 -23 -19 -46 4 -38 41 5 27 -8 41 -20 22z"/>
<path d="M1345 819 c-4 -6 -5 -13 -2 -16 7 -7 27 6 27 18 0 12 -17 12 -25 -2z"/>
<path d="M1290 751 c0 -46 22 -70 45 -51 17 14 21 60 5 60 -5 0 -10 -9 -10
-21 0 -12 -5 -19 -12 -16 -8 2 -12 17 -10 36 1 17 -2 31 -8 31 -5 0 -10 -17
-10 -39z"/>
<path d="M1490 1150 c0 -5 4 -10 9 -10 6 0 13 5 16 10 3 6 -1 10 -9 10 -9 0
-16 -4 -16 -10z"/>
<path d="M660 1130 c0 -5 5 -10 10 -10 6 0 10 5 10 10 0 6 -4 10 -10 10 -5 0
-10 -4 -10 -10z"/>
<path d="M307 1109 c-9 -6 -15 -14 -12 -20 10 -15 22 -10 28 11 3 11 4 20 4
20 -1 0 -10 -5 -20 -11z"/>
<path d="M485 1050 c-3 -5 -1 -10 4 -10 6 0 11 5 11 10 0 6 -2 10 -4 10 -3 0
-8 -4 -11 -10z"/>
<path d="M1231 344 c-36 -7 -72 -21 -80 -30 -15 -15 -14 -16 9 -10 14 4 55 14
92 22 38 9 65 20 62 25 -6 11 -3 11 -83 -7z"/>
<path d="M1481 1969 c-25 -11 -51 -28 -58 -39 -15 -22 -43 -27 -43 -8 0 6 7
20 17 30 9 10 13 21 9 26 -4 4 -19 -6 -32 -21 -19 -22 -22 -32 -14 -48 15 -28
52 -23 84 10 15 16 37 31 47 34 17 5 19 -1 19 -43 0 -50 -28 -100 -56 -100 -8
0 -14 -4 -14 -10 0 -14 37 -12 68 4 37 20 68 55 87 99 8 20 16 37 18 37 1 0 2
-52 2 -115 0 -76 3 -111 10 -104 6 6 9 52 7 106 -2 82 1 100 18 129 l21 33
-32 -1 c-29 -1 -34 -6 -65 -74 -18 -39 -38 -75 -45 -80 -9 -5 -10 -2 -6 10 4
10 7 40 7 66 0 44 3 51 28 64 l27 15 -30 0 c-16 0 -50 -8 -74 -20z"/>
<path d="M1752 1938 c-11 -29 -28 -84 -37 -122 -25 -113 -84 -186 -148 -186
-14 0 -29 -5 -33 -11 -4 -7 8 -10 36 -8 36 3 44 0 51 -18 4 -11 12 -24 18 -28
8 -4 2 -23 -16 -56 l-28 -50 24 -20 c37 -31 56 -25 30 10 -21 29 -21 31 -5 55
9 15 21 26 27 26 6 0 8 4 4 9 -11 19 12 19 25 0 8 -10 18 -19 23 -19 5 0 -2
14 -14 31 -20 28 -20 30 -2 19 11 -7 28 -25 38 -40 12 -17 25 -26 36 -23 9 3
20 0 23 -5 3 -6 15 -8 26 -5 15 4 20 0 20 -15 0 -31 -11 -52 -26 -52 -8 0 -11
-6 -8 -15 9 -22 -9 -18 -26 5 -22 30 -33 24 -13 -7 17 -25 17 -27 1 -20 -10 3
-20 2 -23 -2 -7 -12 25 -25 53 -22 23 3 57 -23 150 -111 27 -26 42 -35 42 -25
0 8 -4 17 -8 19 -4 2 -23 22 -41 45 l-33 42 20 28 c11 15 29 37 41 47 20 18
29 46 15 46 -4 0 -22 -9 -40 -21 -19 -11 -34 -16 -34 -10 0 18 -24 13 -48 -9
-26 -25 -29 -14 -5 20 10 14 16 33 15 43 -2 12 3 17 20 17 18 0 20 -2 8 -10
-8 -5 -11 -12 -7 -17 4 -4 28 4 52 17 51 28 61 55 18 46 -131 -25 -184 -16
-233 40 -39 45 -38 60 5 85 20 12 35 29 35 40 0 21 16 26 23 7 9 -24 27 43 27
99 0 52 2 57 45 99 25 24 45 52 45 64 0 25 -17 26 -24 2 -4 -11 -18 -29 -31
-42 l-25 -23 0 41 c0 41 -1 42 -33 42 -31 0 -35 -4 -55 -52z m59 -51 c-6 -6
-11 -22 -11 -34 0 -13 -8 -40 -19 -61 -10 -20 -22 -51 -25 -69 -9 -40 -32 -61
-48 -45 -9 9 -8 21 5 47 9 20 17 51 17 70 0 38 29 112 63 159 l22 31 3 -44 c2
-24 -2 -49 -7 -54z m-141 -283 c0 -23 -4 -34 -12 -32 -33 11 -36 68 -3 68 11
0 15 -10 15 -36z m240 -204 c0 -5 -7 -10 -16 -10 -10 0 -14 -6 -10 -15 6 -17
-9 -21 -19 -4 -4 6 1 17 11 24 23 17 34 19 34 5z"/>
<path d="M1943 1949 c3 -23 14 -51 25 -62 11 -12 22 -33 25 -47 3 -17 5 -11 6
16 0 26 -5 46 -14 54 -8 7 -15 28 -15 46 0 25 -4 34 -16 34 -14 0 -16 -8 -11
-41z"/>
<path d="M1085 1910 c3 -5 8 -10 11 -10 2 0 4 5 4 10 0 6 -5 10 -11 10 -5 0
-7 -4 -4 -10z"/>
<path d="M1840 1648 c0 -21 66 -78 90 -78 28 0 70 18 70 30 0 6 -4 9 -10 5 -5
-3 -25 -6 -45 -7 -28 -1 -43 6 -70 32 -25 24 -35 29 -35 18z"/>
<path d="M1675 1500 c4 -6 11 -8 16 -5 14 9 11 15 -7 15 -8 0 -12 -5 -9 -10z"/>
<path d="M1725 1490 c4 -6 11 -8 16 -5 14 9 11 15 -7 15 -8 0 -12 -5 -9 -10z"/>
<path d="M1775 1480 c3 -5 8 -10 11 -10 2 0 4 5 4 10 0 6 -5 10 -11 10 -5 0
-7 -4 -4 -10z"/>
<path d="M0 1464 c0 -8 5 -12 10 -9 6 4 8 11 5 16 -9 14 -15 11 -15 -7z"/>
<path d="M1825 1470 c3 -5 8 -10 11 -10 2 0 4 5 4 10 0 6 -5 10 -11 10 -5 0
-7 -4 -4 -10z"/>
<path d="M1950 1470 c0 -5 5 -10 10 -10 6 0 10 5 10 10 0 6 -4 10 -10 10 -5 0
-10 -4 -10 -10z"/>
<path d="M1666 1461 c-4 -5 -2 -12 3 -15 5 -4 12 -2 15 3 4 5 2 12 -3 15 -5 4
-12 2 -15 -3z"/>
<path d="M1745 1460 c3 -5 8 -10 11 -10 2 0 4 5 4 10 0 6 -5 10 -11 10 -5 0
-7 -4 -4 -10z"/>
<path d="M1796 1461 c-4 -7 -5 -15 -2 -18 9 -9 19 4 14 18 -4 11 -6 11 -12 0z"/>
<path d="M1710 1450 c0 -5 5 -10 10 -10 6 0 10 5 10 10 0 6 -4 10 -10 10 -5 0
-10 -4 -10 -10z"/>
<path d="M1920 1450 c0 -5 5 -10 10 -10 6 0 10 5 10 10 0 6 -4 10 -10 10 -5 0
-10 -4 -10 -10z"/>
<path d="M1685 1430 c-3 -5 -1 -10 4 -10 6 0 11 5 11 10 0 6 -2 10 -4 10 -3 0
-8 -4 -11 -10z"/>
<path d="M1735 1420 c-3 -5 -1 -10 4 -10 6 0 11 5 11 10 0 6 -2 10 -4 10 -3 0
-8 -4 -11 -10z"/>
<path d="M2 1400 c0 -14 2 -19 5 -12 2 6 2 18 0 25 -3 6 -5 1 -5 -13z"/>
<path d="M0 1134 c0 -125 2 -225 4 -223 8 8 12 440 4 445 -4 3 -8 -97 -8 -222z"/>
<path d="M1710 1216 c0 -14 5 -26 10 -26 6 0 10 9 10 19 0 11 -4 23 -10 26 -6
4 -10 -5 -10 -19z"/>
<path d="M1720 1155 c0 -15 4 -24 10 -20 6 3 10 12 10 20 0 8 -4 17 -10 20 -6
4 -10 -5 -10 -20z"/>
<path d="M1825 1137 c-8 -12 -15 -30 -15 -40 0 -10 -7 -29 -16 -42 -20 -30
-24 -93 -7 -107 14 -11 54 26 89 83 19 32 23 34 72 32 29 -1 52 1 52 6 0 10
-59 21 -111 21 -32 0 -36 -3 -32 -23 4 -22 -32 -87 -52 -94 -20 -6 -16 53 5
72 11 10 20 27 20 37 0 11 5 28 11 40 9 17 17 19 55 13 47 -7 104 1 104 15 0
4 -36 8 -80 8 -71 0 -82 -2 -95 -21z"/>
<path d="M1727 943 c-3 -5 -5 -40 -3 -77 2 -36 0 -69 -4 -71 -11 -7 -20 21
-20 62 0 20 -3 33 -7 29 -4 -3 -7 -25 -7 -49 -1 -36 -4 -42 -23 -45 -22 -3
-33 -22 -13 -22 48 0 217 24 225 32 7 7 -10 8 -52 4 -34 -4 -64 -3 -67 2 -3 5
-6 34 -7 65 -2 57 -12 87 -22 70z"/>
<path d="M1 884 c0 -11 3 -14 6 -6 3 7 2 16 -1 19 -3 4 -6 -2 -5 -13z"/>
<path d="M1920 810 c-34 -7 -34 -7 13 -9 26 0 47 4 47 9 0 11 -8 11 -60 0z"/>
<path d="M1580 780 l-25 -8 28 -1 c15 -1 30 -1 34 -2 4 0 9 4 11 10 4 12 -12
13 -48 1z"/>
<path d="M1765 629 c-38 -4 -97 -10 -130 -14 -60 -6 -73 -10 -58 -17 6 -4 164
9 296 24 28 3 20 15 -10 15 -16 0 -59 -4 -98 -8z"/>
<path d="M1930 20 c-51 -17 -53 -19 -20 -18 47 0 83 11 88 26 5 15 -1 15 -68
-8z"/>
</g>
</svg>
